<svg width="70" height="92" viewBox="0 0 70 92" fill="none" xmlns="http://www.w3.org/2000/svg">
<path d="M67.5833 34.5H61.8333V26.8333C61.8333 12.0372 49.7961 0 35 0C20.2039 0 8.16667 12.0372 8.16667 26.8333V34.5H2.41667C1.35726 34.5 0.5 35.3573 0.5 36.4167V84.3333C0.5 88.5616 3.9384 92 8.16667 92H61.8333C66.0616 92 69.5 88.5616 69.5 84.3333V36.4167C69.5 35.3573 68.6427 34.5 67.5833 34.5ZM39.5296 63.6655L40.7388 74.5385C40.7987 75.0794 40.6246 75.6222 40.2615 76.0284C39.8984 76.4346 39.378 76.6667 38.8333 76.6667H31.1667C30.622 76.6667 30.1016 76.4346 29.7385 76.0284C29.3754 75.6222 29.2013 75.0794 29.2612 74.5385L30.4704 63.6655C28.5069 62.2374 27.3333 59.9782 27.3333 57.5C27.3333 53.2717 30.7717 49.8333 35 49.8333C39.2283 49.8333 42.6667 53.2717 42.6667 57.5C42.6667 59.9782 41.4931 62.2374 39.5296 63.6655ZM50.3333 34.5H19.6667V26.8333C19.6667 18.3787 26.5453 11.5 35 11.5C43.4547 11.5 50.3333 18.3787 50.3333 26.8333V34.5Z" fill="#4A5469" fill-opacity="0.4"/>
</svg>
