<svg width="30" height="40" viewBox="0 0 30 40" fill="none" xmlns="http://www.w3.org/2000/svg">
<path d="M29.1667 15H26.6667V11.6667C26.6667 5.23356 21.4331 0 15 0C8.56689 0 3.33333 5.23356 3.33333 11.6667V15H0.833333C0.372721 15 0 15.3727 0 15.8333V36.6667C0 38.505 1.49495 40 3.33333 40H26.6667C28.505 40 30 38.505 30 36.6667V15.8333C30 15.3727 29.6273 15 29.1667 15ZM16.9694 27.6807L17.4951 32.408C17.5212 32.6432 17.4455 32.8792 17.2876 33.0558C17.1297 33.2324 16.9035 33.3333 16.6667 33.3333H13.3333C13.0965 33.3333 12.8703 33.2324 12.7124 33.0558C12.5545 32.8792 12.4788 32.6432 12.5049 32.408L13.0306 27.6807C12.1769 27.0597 11.6667 26.0775 11.6667 25C11.6667 23.1616 13.1616 21.6667 15 21.6667C16.8384 21.6667 18.3333 23.1616 18.3333 25C18.3333 26.0775 17.8231 27.0597 16.9694 27.6807ZM21.6667 15H8.33333V11.6667C8.33333 7.99072 11.3241 5 15 5C18.6759 5 21.6667 7.99072 21.6667 11.6667V15Z" fill="white"/>
</svg>
